<mxfile host="Electron" agent="Mozilla/5.0 (Windows NT 10.0; Win64; x64) AppleWebKit/537.36 (KHTML, like Gecko) draw.io/25.0.2 Chrome/128.0.6613.186 Electron/32.2.5 Safari/537.36" version="25.0.2">
  <diagram name="Side-1" id="EyOBy_V7nfUND7y_e8XX">
    <mxGraphModel dx="1025" dy="518" grid="1" gridSize="10" guides="1" tooltips="1" connect="1" arrows="1" fold="1" page="1" pageScale="1" pageWidth="827" pageHeight="1169" math="0" shadow="0">
      <root>
        <mxCell id="0" />
        <mxCell id="1" parent="0" />
        <mxCell id="LdCEZLapzNbF1Clx3gaI-94" style="edgeStyle=orthogonalEdgeStyle;rounded=0;orthogonalLoop=1;jettySize=auto;html=1;entryX=1;entryY=0.5;entryDx=0;entryDy=0;" edge="1" parent="1" source="LdCEZLapzNbF1Clx3gaI-6" target="LdCEZLapzNbF1Clx3gaI-10">
          <mxGeometry relative="1" as="geometry">
            <Array as="points">
              <mxPoint x="540" y="327" />
              <mxPoint x="540" y="477" />
            </Array>
          </mxGeometry>
        </mxCell>
        <mxCell id="LdCEZLapzNbF1Clx3gaI-6" value="Node" style="swimlane;fontStyle=1;align=center;verticalAlign=top;childLayout=stackLayout;horizontal=1;startSize=26;horizontalStack=0;resizeParent=1;resizeParentMax=0;resizeLast=0;collapsible=1;marginBottom=0;whiteSpace=wrap;html=1;" vertex="1" parent="1">
          <mxGeometry x="360" y="310" width="160" height="34" as="geometry" />
        </mxCell>
        <mxCell id="LdCEZLapzNbF1Clx3gaI-8" value="" style="line;strokeWidth=1;fillColor=none;align=left;verticalAlign=middle;spacingTop=-1;spacingLeft=3;spacingRight=3;rotatable=0;labelPosition=right;points=[];portConstraint=eastwest;strokeColor=inherit;" vertex="1" parent="LdCEZLapzNbF1Clx3gaI-6">
          <mxGeometry y="26" width="160" height="8" as="geometry" />
        </mxCell>
        <mxCell id="LdCEZLapzNbF1Clx3gaI-93" style="edgeStyle=orthogonalEdgeStyle;rounded=0;orthogonalLoop=1;jettySize=auto;html=1;entryX=1;entryY=0.5;entryDx=0;entryDy=0;exitX=1;exitY=0.5;exitDx=0;exitDy=0;" edge="1" parent="1" source="LdCEZLapzNbF1Clx3gaI-10" target="LdCEZLapzNbF1Clx3gaI-6">
          <mxGeometry relative="1" as="geometry" />
        </mxCell>
        <mxCell id="LdCEZLapzNbF1Clx3gaI-10" value="Road" style="swimlane;fontStyle=1;align=center;verticalAlign=top;childLayout=stackLayout;horizontal=1;startSize=26;horizontalStack=0;resizeParent=1;resizeParentMax=0;resizeLast=0;collapsible=1;marginBottom=0;whiteSpace=wrap;html=1;" vertex="1" parent="1">
          <mxGeometry x="360" y="460" width="160" height="34" as="geometry" />
        </mxCell>
        <mxCell id="LdCEZLapzNbF1Clx3gaI-11" value="" style="line;strokeWidth=1;fillColor=none;align=left;verticalAlign=middle;spacingTop=-1;spacingLeft=3;spacingRight=3;rotatable=0;labelPosition=right;points=[];portConstraint=eastwest;strokeColor=inherit;" vertex="1" parent="LdCEZLapzNbF1Clx3gaI-10">
          <mxGeometry y="26" width="160" height="8" as="geometry" />
        </mxCell>
        <mxCell id="LdCEZLapzNbF1Clx3gaI-12" value="Polygon" style="swimlane;fontStyle=1;align=center;verticalAlign=top;childLayout=stackLayout;horizontal=1;startSize=26;horizontalStack=0;resizeParent=1;resizeParentMax=0;resizeLast=0;collapsible=1;marginBottom=0;whiteSpace=wrap;html=1;" vertex="1" parent="1">
          <mxGeometry x="360" y="410" width="160" height="34" as="geometry" />
        </mxCell>
        <mxCell id="LdCEZLapzNbF1Clx3gaI-13" value="" style="line;strokeWidth=1;fillColor=none;align=left;verticalAlign=middle;spacingTop=-1;spacingLeft=3;spacingRight=3;rotatable=0;labelPosition=right;points=[];portConstraint=eastwest;strokeColor=inherit;" vertex="1" parent="LdCEZLapzNbF1Clx3gaI-12">
          <mxGeometry y="26" width="160" height="8" as="geometry" />
        </mxCell>
        <mxCell id="LdCEZLapzNbF1Clx3gaI-58" style="edgeStyle=orthogonalEdgeStyle;rounded=0;orthogonalLoop=1;jettySize=auto;html=1;entryX=0;entryY=0.5;entryDx=0;entryDy=0;" edge="1" parent="1" source="LdCEZLapzNbF1Clx3gaI-23" target="LdCEZLapzNbF1Clx3gaI-25">
          <mxGeometry relative="1" as="geometry" />
        </mxCell>
        <mxCell id="LdCEZLapzNbF1Clx3gaI-23" value="RadixTrie" style="swimlane;fontStyle=1;align=center;verticalAlign=top;childLayout=stackLayout;horizontal=1;startSize=26;horizontalStack=0;resizeParent=1;resizeParentMax=0;resizeLast=0;collapsible=1;marginBottom=0;whiteSpace=wrap;html=1;" vertex="1" parent="1">
          <mxGeometry x="360" y="200" width="160" height="34" as="geometry" />
        </mxCell>
        <mxCell id="LdCEZLapzNbF1Clx3gaI-24" value="" style="line;strokeWidth=1;fillColor=none;align=left;verticalAlign=middle;spacingTop=-1;spacingLeft=3;spacingRight=3;rotatable=0;labelPosition=right;points=[];portConstraint=eastwest;strokeColor=inherit;" vertex="1" parent="LdCEZLapzNbF1Clx3gaI-23">
          <mxGeometry y="26" width="160" height="8" as="geometry" />
        </mxCell>
        <mxCell id="LdCEZLapzNbF1Clx3gaI-25" value="TrieNode" style="swimlane;fontStyle=1;align=center;verticalAlign=top;childLayout=stackLayout;horizontal=1;startSize=26;horizontalStack=0;resizeParent=1;resizeParentMax=0;resizeLast=0;collapsible=1;marginBottom=0;whiteSpace=wrap;html=1;" vertex="1" parent="1">
          <mxGeometry x="560" y="200" width="160" height="34" as="geometry" />
        </mxCell>
        <mxCell id="LdCEZLapzNbF1Clx3gaI-26" value="" style="line;strokeWidth=1;fillColor=none;align=left;verticalAlign=middle;spacingTop=-1;spacingLeft=3;spacingRight=3;rotatable=0;labelPosition=right;points=[];portConstraint=eastwest;strokeColor=inherit;" vertex="1" parent="LdCEZLapzNbF1Clx3gaI-25">
          <mxGeometry y="26" width="160" height="8" as="geometry" />
        </mxCell>
        <mxCell id="LdCEZLapzNbF1Clx3gaI-27" value="POI" style="swimlane;fontStyle=1;align=center;verticalAlign=top;childLayout=stackLayout;horizontal=1;startSize=26;horizontalStack=0;resizeParent=1;resizeParentMax=0;resizeLast=0;collapsible=1;marginBottom=0;whiteSpace=wrap;html=1;" vertex="1" parent="1">
          <mxGeometry x="360" y="360" width="160" height="34" as="geometry" />
        </mxCell>
        <mxCell id="LdCEZLapzNbF1Clx3gaI-28" value="" style="line;strokeWidth=1;fillColor=none;align=left;verticalAlign=middle;spacingTop=-1;spacingLeft=3;spacingRight=3;rotatable=0;labelPosition=right;points=[];portConstraint=eastwest;strokeColor=inherit;" vertex="1" parent="LdCEZLapzNbF1Clx3gaI-27">
          <mxGeometry y="26" width="160" height="8" as="geometry" />
        </mxCell>
        <mxCell id="LdCEZLapzNbF1Clx3gaI-90" style="edgeStyle=orthogonalEdgeStyle;rounded=0;orthogonalLoop=1;jettySize=auto;html=1;entryX=0.5;entryY=0;entryDx=0;entryDy=0;" edge="1" parent="1" source="LdCEZLapzNbF1Clx3gaI-29" target="LdCEZLapzNbF1Clx3gaI-6">
          <mxGeometry relative="1" as="geometry" />
        </mxCell>
        <mxCell id="LdCEZLapzNbF1Clx3gaI-29" value="SimpleNode" style="swimlane;fontStyle=1;align=center;verticalAlign=top;childLayout=stackLayout;horizontal=1;startSize=26;horizontalStack=0;resizeParent=1;resizeParentMax=0;resizeLast=0;collapsible=1;marginBottom=0;whiteSpace=wrap;html=1;" vertex="1" parent="1">
          <mxGeometry x="360" y="250" width="160" height="34" as="geometry" />
        </mxCell>
        <mxCell id="LdCEZLapzNbF1Clx3gaI-30" value="" style="line;strokeWidth=1;fillColor=none;align=left;verticalAlign=middle;spacingTop=-1;spacingLeft=3;spacingRight=3;rotatable=0;labelPosition=right;points=[];portConstraint=eastwest;strokeColor=inherit;" vertex="1" parent="LdCEZLapzNbF1Clx3gaI-29">
          <mxGeometry y="26" width="160" height="8" as="geometry" />
        </mxCell>
        <mxCell id="LdCEZLapzNbF1Clx3gaI-86" style="edgeStyle=orthogonalEdgeStyle;rounded=0;orthogonalLoop=1;jettySize=auto;html=1;entryX=0;entryY=0.5;entryDx=0;entryDy=0;" edge="1" parent="1" source="LdCEZLapzNbF1Clx3gaI-31" target="LdCEZLapzNbF1Clx3gaI-6">
          <mxGeometry relative="1" as="geometry" />
        </mxCell>
        <mxCell id="LdCEZLapzNbF1Clx3gaI-87" style="edgeStyle=orthogonalEdgeStyle;rounded=0;orthogonalLoop=1;jettySize=auto;html=1;entryX=0;entryY=0.5;entryDx=0;entryDy=0;" edge="1" parent="1" source="LdCEZLapzNbF1Clx3gaI-31" target="LdCEZLapzNbF1Clx3gaI-27">
          <mxGeometry relative="1" as="geometry" />
        </mxCell>
        <mxCell id="LdCEZLapzNbF1Clx3gaI-88" style="edgeStyle=orthogonalEdgeStyle;rounded=0;orthogonalLoop=1;jettySize=auto;html=1;entryX=0;entryY=0.5;entryDx=0;entryDy=0;" edge="1" parent="1" source="LdCEZLapzNbF1Clx3gaI-31" target="LdCEZLapzNbF1Clx3gaI-12">
          <mxGeometry relative="1" as="geometry" />
        </mxCell>
        <mxCell id="LdCEZLapzNbF1Clx3gaI-89" style="edgeStyle=orthogonalEdgeStyle;rounded=0;orthogonalLoop=1;jettySize=auto;html=1;entryX=0;entryY=0.5;entryDx=0;entryDy=0;" edge="1" parent="1" source="LdCEZLapzNbF1Clx3gaI-31" target="LdCEZLapzNbF1Clx3gaI-10">
          <mxGeometry relative="1" as="geometry" />
        </mxCell>
        <mxCell id="LdCEZLapzNbF1Clx3gaI-31" value="Tile" style="swimlane;fontStyle=1;align=center;verticalAlign=top;childLayout=stackLayout;horizontal=1;startSize=26;horizontalStack=0;resizeParent=1;resizeParentMax=0;resizeLast=0;collapsible=1;marginBottom=0;whiteSpace=wrap;html=1;" vertex="1" parent="1">
          <mxGeometry x="120" y="380" width="160" height="34" as="geometry" />
        </mxCell>
        <mxCell id="LdCEZLapzNbF1Clx3gaI-32" value="" style="line;strokeWidth=1;fillColor=none;align=left;verticalAlign=middle;spacingTop=-1;spacingLeft=3;spacingRight=3;rotatable=0;labelPosition=right;points=[];portConstraint=eastwest;strokeColor=inherit;" vertex="1" parent="LdCEZLapzNbF1Clx3gaI-31">
          <mxGeometry y="26" width="160" height="8" as="geometry" />
        </mxCell>
        <mxCell id="LdCEZLapzNbF1Clx3gaI-82" style="edgeStyle=orthogonalEdgeStyle;rounded=0;orthogonalLoop=1;jettySize=auto;html=1;entryX=0.5;entryY=0;entryDx=0;entryDy=0;" edge="1" parent="1" source="LdCEZLapzNbF1Clx3gaI-33" target="LdCEZLapzNbF1Clx3gaI-31">
          <mxGeometry relative="1" as="geometry" />
        </mxCell>
        <mxCell id="LdCEZLapzNbF1Clx3gaI-33" value="Tilegrid" style="swimlane;fontStyle=1;align=center;verticalAlign=top;childLayout=stackLayout;horizontal=1;startSize=26;horizontalStack=0;resizeParent=1;resizeParentMax=0;resizeLast=0;collapsible=1;marginBottom=0;whiteSpace=wrap;html=1;" vertex="1" parent="1">
          <mxGeometry x="120" y="250" width="160" height="34" as="geometry" />
        </mxCell>
        <mxCell id="LdCEZLapzNbF1Clx3gaI-34" value="" style="line;strokeWidth=1;fillColor=none;align=left;verticalAlign=middle;spacingTop=-1;spacingLeft=3;spacingRight=3;rotatable=0;labelPosition=right;points=[];portConstraint=eastwest;strokeColor=inherit;" vertex="1" parent="LdCEZLapzNbF1Clx3gaI-33">
          <mxGeometry y="26" width="160" height="8" as="geometry" />
        </mxCell>
        <mxCell id="LdCEZLapzNbF1Clx3gaI-52" style="edgeStyle=orthogonalEdgeStyle;rounded=0;orthogonalLoop=1;jettySize=auto;html=1;entryX=0;entryY=0.5;entryDx=0;entryDy=0;" edge="1" parent="1" source="LdCEZLapzNbF1Clx3gaI-35" target="LdCEZLapzNbF1Clx3gaI-39">
          <mxGeometry relative="1" as="geometry" />
        </mxCell>
        <mxCell id="LdCEZLapzNbF1Clx3gaI-54" style="edgeStyle=orthogonalEdgeStyle;rounded=0;orthogonalLoop=1;jettySize=auto;html=1;entryX=1;entryY=0.5;entryDx=0;entryDy=0;" edge="1" parent="1" source="LdCEZLapzNbF1Clx3gaI-35" target="LdCEZLapzNbF1Clx3gaI-43">
          <mxGeometry relative="1" as="geometry" />
        </mxCell>
        <mxCell id="LdCEZLapzNbF1Clx3gaI-55" style="edgeStyle=orthogonalEdgeStyle;rounded=0;orthogonalLoop=1;jettySize=auto;html=1;entryX=0.5;entryY=0;entryDx=0;entryDy=0;" edge="1" parent="1" source="LdCEZLapzNbF1Clx3gaI-35" target="LdCEZLapzNbF1Clx3gaI-37">
          <mxGeometry relative="1" as="geometry" />
        </mxCell>
        <mxCell id="LdCEZLapzNbF1Clx3gaI-35" value="Controller" style="swimlane;fontStyle=1;align=center;verticalAlign=top;childLayout=stackLayout;horizontal=1;startSize=26;horizontalStack=0;resizeParent=1;resizeParentMax=0;resizeLast=0;collapsible=1;marginBottom=0;whiteSpace=wrap;html=1;" vertex="1" parent="1">
          <mxGeometry x="240" y="30" width="160" height="34" as="geometry" />
        </mxCell>
        <mxCell id="LdCEZLapzNbF1Clx3gaI-36" value="" style="line;strokeWidth=1;fillColor=none;align=left;verticalAlign=middle;spacingTop=-1;spacingLeft=3;spacingRight=3;rotatable=0;labelPosition=right;points=[];portConstraint=eastwest;strokeColor=inherit;" vertex="1" parent="LdCEZLapzNbF1Clx3gaI-35">
          <mxGeometry y="26" width="160" height="8" as="geometry" />
        </mxCell>
        <mxCell id="LdCEZLapzNbF1Clx3gaI-39" value="View" style="swimlane;fontStyle=1;align=center;verticalAlign=top;childLayout=stackLayout;horizontal=1;startSize=26;horizontalStack=0;resizeParent=1;resizeParentMax=0;resizeLast=0;collapsible=1;marginBottom=0;whiteSpace=wrap;html=1;" vertex="1" parent="1">
          <mxGeometry x="440" y="30" width="160" height="34" as="geometry" />
        </mxCell>
        <mxCell id="LdCEZLapzNbF1Clx3gaI-40" value="" style="line;strokeWidth=1;fillColor=none;align=left;verticalAlign=middle;spacingTop=-1;spacingLeft=3;spacingRight=3;rotatable=0;labelPosition=right;points=[];portConstraint=eastwest;strokeColor=inherit;" vertex="1" parent="LdCEZLapzNbF1Clx3gaI-39">
          <mxGeometry y="26" width="160" height="8" as="geometry" />
        </mxCell>
        <mxCell id="LdCEZLapzNbF1Clx3gaI-68" style="edgeStyle=orthogonalEdgeStyle;rounded=0;orthogonalLoop=1;jettySize=auto;html=1;entryX=1;entryY=0.5;entryDx=0;entryDy=0;" edge="1" parent="1" source="LdCEZLapzNbF1Clx3gaI-37" target="LdCEZLapzNbF1Clx3gaI-45">
          <mxGeometry relative="1" as="geometry" />
        </mxCell>
        <mxCell id="LdCEZLapzNbF1Clx3gaI-69" style="edgeStyle=orthogonalEdgeStyle;rounded=0;orthogonalLoop=1;jettySize=auto;html=1;entryX=0;entryY=0.5;entryDx=0;entryDy=0;" edge="1" parent="1" source="LdCEZLapzNbF1Clx3gaI-37" target="LdCEZLapzNbF1Clx3gaI-49">
          <mxGeometry relative="1" as="geometry" />
        </mxCell>
        <mxCell id="LdCEZLapzNbF1Clx3gaI-78" style="edgeStyle=orthogonalEdgeStyle;rounded=0;orthogonalLoop=1;jettySize=auto;html=1;entryX=1;entryY=0.5;entryDx=0;entryDy=0;" edge="1" parent="1" source="LdCEZLapzNbF1Clx3gaI-37" target="LdCEZLapzNbF1Clx3gaI-47">
          <mxGeometry relative="1" as="geometry" />
        </mxCell>
        <mxCell id="LdCEZLapzNbF1Clx3gaI-79" style="edgeStyle=orthogonalEdgeStyle;rounded=0;orthogonalLoop=1;jettySize=auto;html=1;entryX=0;entryY=0.5;entryDx=0;entryDy=0;" edge="1" parent="1" source="LdCEZLapzNbF1Clx3gaI-37" target="LdCEZLapzNbF1Clx3gaI-23">
          <mxGeometry relative="1" as="geometry" />
        </mxCell>
        <mxCell id="LdCEZLapzNbF1Clx3gaI-83" style="edgeStyle=orthogonalEdgeStyle;rounded=0;orthogonalLoop=1;jettySize=auto;html=1;entryX=1;entryY=0.5;entryDx=0;entryDy=0;" edge="1" parent="1" source="LdCEZLapzNbF1Clx3gaI-37" target="LdCEZLapzNbF1Clx3gaI-33">
          <mxGeometry relative="1" as="geometry" />
        </mxCell>
        <mxCell id="LdCEZLapzNbF1Clx3gaI-84" style="edgeStyle=orthogonalEdgeStyle;rounded=0;orthogonalLoop=1;jettySize=auto;html=1;entryX=0;entryY=0.5;entryDx=0;entryDy=0;" edge="1" parent="1" source="LdCEZLapzNbF1Clx3gaI-37" target="LdCEZLapzNbF1Clx3gaI-29">
          <mxGeometry relative="1" as="geometry" />
        </mxCell>
        <mxCell id="LdCEZLapzNbF1Clx3gaI-92" style="edgeStyle=orthogonalEdgeStyle;rounded=0;orthogonalLoop=1;jettySize=auto;html=1;entryX=0.5;entryY=1;entryDx=0;entryDy=0;" edge="1" parent="1" source="LdCEZLapzNbF1Clx3gaI-37" target="LdCEZLapzNbF1Clx3gaI-35">
          <mxGeometry relative="1" as="geometry" />
        </mxCell>
        <mxCell id="LdCEZLapzNbF1Clx3gaI-37" value="Model" style="swimlane;fontStyle=1;align=center;verticalAlign=top;childLayout=stackLayout;horizontal=1;startSize=26;horizontalStack=0;resizeParent=1;resizeParentMax=0;resizeLast=0;collapsible=1;marginBottom=0;whiteSpace=wrap;html=1;" vertex="1" parent="1">
          <mxGeometry x="240" y="90" width="160" height="34" as="geometry" />
        </mxCell>
        <mxCell id="LdCEZLapzNbF1Clx3gaI-38" value="" style="line;strokeWidth=1;fillColor=none;align=left;verticalAlign=middle;spacingTop=-1;spacingLeft=3;spacingRight=3;rotatable=0;labelPosition=right;points=[];portConstraint=eastwest;strokeColor=inherit;" vertex="1" parent="LdCEZLapzNbF1Clx3gaI-37">
          <mxGeometry y="26" width="160" height="8" as="geometry" />
        </mxCell>
        <mxCell id="LdCEZLapzNbF1Clx3gaI-43" value="LoadingBar" style="swimlane;fontStyle=1;align=center;verticalAlign=top;childLayout=stackLayout;horizontal=1;startSize=26;horizontalStack=0;resizeParent=1;resizeParentMax=0;resizeLast=0;collapsible=1;marginBottom=0;whiteSpace=wrap;html=1;" vertex="1" parent="1">
          <mxGeometry x="40" y="30" width="160" height="34" as="geometry" />
        </mxCell>
        <mxCell id="LdCEZLapzNbF1Clx3gaI-44" value="" style="line;strokeWidth=1;fillColor=none;align=left;verticalAlign=middle;spacingTop=-1;spacingLeft=3;spacingRight=3;rotatable=0;labelPosition=right;points=[];portConstraint=eastwest;strokeColor=inherit;" vertex="1" parent="LdCEZLapzNbF1Clx3gaI-43">
          <mxGeometry y="26" width="160" height="8" as="geometry" />
        </mxCell>
        <mxCell id="LdCEZLapzNbF1Clx3gaI-45" value="Parser" style="swimlane;fontStyle=1;align=center;verticalAlign=top;childLayout=stackLayout;horizontal=1;startSize=26;horizontalStack=0;resizeParent=1;resizeParentMax=0;resizeLast=0;collapsible=1;marginBottom=0;whiteSpace=wrap;html=1;" vertex="1" parent="1">
          <mxGeometry x="120" y="150" width="160" height="34" as="geometry" />
        </mxCell>
        <mxCell id="LdCEZLapzNbF1Clx3gaI-46" value="" style="line;strokeWidth=1;fillColor=none;align=left;verticalAlign=middle;spacingTop=-1;spacingLeft=3;spacingRight=3;rotatable=0;labelPosition=right;points=[];portConstraint=eastwest;strokeColor=inherit;" vertex="1" parent="LdCEZLapzNbF1Clx3gaI-45">
          <mxGeometry y="26" width="160" height="8" as="geometry" />
        </mxCell>
        <mxCell id="LdCEZLapzNbF1Clx3gaI-47" value="PDFOutput" style="swimlane;fontStyle=1;align=center;verticalAlign=top;childLayout=stackLayout;horizontal=1;startSize=26;horizontalStack=0;resizeParent=1;resizeParentMax=0;resizeLast=0;collapsible=1;marginBottom=0;whiteSpace=wrap;html=1;" vertex="1" parent="1">
          <mxGeometry x="120" y="200" width="160" height="34" as="geometry" />
        </mxCell>
        <mxCell id="LdCEZLapzNbF1Clx3gaI-48" value="" style="line;strokeWidth=1;fillColor=none;align=left;verticalAlign=middle;spacingTop=-1;spacingLeft=3;spacingRight=3;rotatable=0;labelPosition=right;points=[];portConstraint=eastwest;strokeColor=inherit;" vertex="1" parent="LdCEZLapzNbF1Clx3gaI-47">
          <mxGeometry y="26" width="160" height="8" as="geometry" />
        </mxCell>
        <mxCell id="LdCEZLapzNbF1Clx3gaI-97" style="edgeStyle=orthogonalEdgeStyle;rounded=0;orthogonalLoop=1;jettySize=auto;html=1;entryX=1;entryY=0.5;entryDx=0;entryDy=0;exitX=1;exitY=0.5;exitDx=0;exitDy=0;" edge="1" parent="1" source="LdCEZLapzNbF1Clx3gaI-49" target="LdCEZLapzNbF1Clx3gaI-6">
          <mxGeometry relative="1" as="geometry">
            <Array as="points">
              <mxPoint x="740" y="167" />
              <mxPoint x="740" y="327" />
            </Array>
          </mxGeometry>
        </mxCell>
        <mxCell id="LdCEZLapzNbF1Clx3gaI-49" value="Search" style="swimlane;fontStyle=1;align=center;verticalAlign=top;childLayout=stackLayout;horizontal=1;startSize=26;horizontalStack=0;resizeParent=1;resizeParentMax=0;resizeLast=0;collapsible=1;marginBottom=0;whiteSpace=wrap;html=1;" vertex="1" parent="1">
          <mxGeometry x="360" y="150" width="160" height="34" as="geometry" />
        </mxCell>
        <mxCell id="LdCEZLapzNbF1Clx3gaI-50" value="" style="line;strokeWidth=1;fillColor=none;align=left;verticalAlign=middle;spacingTop=-1;spacingLeft=3;spacingRight=3;rotatable=0;labelPosition=right;points=[];portConstraint=eastwest;strokeColor=inherit;" vertex="1" parent="LdCEZLapzNbF1Clx3gaI-49">
          <mxGeometry y="26" width="160" height="8" as="geometry" />
        </mxCell>
        <mxCell id="LdCEZLapzNbF1Clx3gaI-91" value="Extends" style="text;html=1;align=center;verticalAlign=middle;whiteSpace=wrap;rounded=0;" vertex="1" parent="1">
          <mxGeometry x="440" y="280" width="60" height="30" as="geometry" />
        </mxCell>
      </root>
    </mxGraphModel>
  </diagram>
</mxfile>
